<svg width="890" height="771" viewBox="0 0 890 771" fill="none" xmlns="http://www.w3.org/2000/svg">
<rect x="485.471" y="80.7062" width="57.5857" height="54.7932" transform="rotate(42.1425 485.471 80.7062)" stroke="#FFCE32"/>
<path d="M81.5 80C81.5 91.8534 71.4476 101.5 59 101.5C46.5524 101.5 36.5 91.8534 36.5 80C36.5 68.1466 46.5524 58.5 59 58.5C71.4476 58.5 81.5 68.1466 81.5 80Z" stroke="#FFCE32"/>
<path d="M493.5 355C493.5 366.853 483.448 376.5 471 376.5C458.552 376.5 448.5 366.853 448.5 355C448.5 343.147 458.552 333.5 471 333.5C483.448 333.5 493.5 343.147 493.5 355Z" stroke="#FFCE32"/>
<path d="M889.5 152C889.5 163.853 879.448 173.5 867 173.5C854.552 173.5 844.5 163.853 844.5 152C844.5 140.147 854.552 130.5 867 130.5C879.448 130.5 889.5 140.147 889.5 152Z" stroke="#FFCE32"/>
<path d="M346.5 749C346.5 760.853 336.448 770.5 324 770.5C311.552 770.5 301.5 760.853 301.5 749C301.5 737.147 311.552 727.5 324 727.5C336.448 727.5 346.5 737.147 346.5 749Z" stroke="#FFCE32"/>
<path d="M734.5 691C734.5 702.853 724.448 712.5 712 712.5C699.552 712.5 689.5 702.853 689.5 691C689.5 679.147 699.552 669.5 712 669.5C724.448 669.5 734.5 679.147 734.5 691Z" stroke="#FFCE32"/>
<path d="M129.54 575.65L205.513 558.273L176.387 630.561L129.54 575.65Z" stroke="#FFCE32"/>
<path d="M689.089 83.1065L712.309 8.71067L760.116 70.2605L689.089 83.1065Z" stroke="#FFCE32"/>
<path d="M81.0471 274.939L79.1542 306.866L79.1334 307.218L79.4577 307.356L111.356 320.924L78.3418 327L77.9564 327.071L77.9332 327.462L76.0462 359.29L57.4345 331.157L57.2521 330.882L56.927 330.941L23.7519 337.047L45.371 313.612L45.6367 313.324L45.4205 312.997L26.8988 285L58.7975 298.568L59.1218 298.706L59.3607 298.447L81.0471 274.939Z" stroke="#FFCE32"/>
<path d="M742.727 402.318L764.913 425.355L765.157 425.609L765.479 425.464L797.078 411.214L779.163 439.602L778.954 439.934L779.225 440.216L801.343 463.181L768.044 457.79L767.718 457.737L767.542 458.016L749.539 486.543L746.968 454.763L746.937 454.372L746.55 454.309L713.412 448.944L745.012 434.694L745.333 434.549L745.305 434.198L742.727 402.318Z" stroke="#FFCE32"/>
<line x1="489.574" y1="536.738" x2="540.574" y2="453.738" stroke="#FFCE32"/>
<line x1="274.574" y1="345.738" x2="325.574" y2="262.738" stroke="#FFCE32"/>
<line x1="8.74817" y1="710.882" x2="104.439" y2="729.136" stroke="#FFCE32"/>
</svg>
